<!--?xml version="1.0" encoding="UTF-8"?-->

<!-- Creator: CorelDRAW X7 -->
<svg xmlns="http://www.w3.org/2000/svg" xml:space="preserve" width="148mm" height="210mm" version="1.1" style="shape-rendering: geometricPrecision; text-rendering: geometricPrecision; fill-rule: evenodd; clip-rule: evenodd;" viewBox="0 0 14800 21000" xmlns:xlink="http://www.w3.org/1999/xlink">
 <defs>
  <style type="text/css">
   
    .fil0 {fill:#2B2A29;fill-rule:nonzero}
   
  </style>
 </defs>
 <g id="Слой_x0020_1">
  <metadata id="CorelCorpID_0Corel-Layer"></metadata>
  <path class="fil0 SmzkYwkS_0" d="M7400 9710c218,0 416,88 559,231 143,143 231,341 231,559 0,218 -88,416 -231,559 -143,143 -341,231 -559,231 -218,0 -416,-88 -559,-231 -143,-143 -231,-341 -231,-559 0,-218 88,-416 231,-559 143,-143 341,-231 559,-231zm547 243c-140,-140 -334,-226 -547,-226 -213,0 -407,86 -547,226 -140,140 -226,334 -226,547 0,213 86,407 226,547 140,140 334,226 547,226 213,0 407,-86 547,-226 140,-140 226,-334 226,-547 0,-213 -86,-407 -226,-547zm-498 563c0,1 -1,1 -2,2 -12,12 -29,20 -47,20 -18,0 -35,-8 -47,-20 -1,-1 -2,-1 -2,-2l0 13c0,14 5,26 14,35 9,9 21,14 35,14 14,0 26,-5 35,-14 9,-9 14,-21 14,-35l0 -13zm-98 -101l0 0c0,13 6,25 14,33 9,9 21,14 35,14 14,0 26,-5 35,-14 8,-8 14,-20 14,-33l0 0 0 -18 6 -2c33,-11 60,-33 80,-60 19,-27 30,-60 30,-96 0,-45 -18,-86 -48,-116 -30,-30 -71,-49 -117,-49 -46,0 -87,19 -117,49 -30,30 -48,71 -48,116 0,36 11,69 30,96 20,27 47,49 80,60l6 2 0 18zm49 -358c50,0 96,20 129,53 33,33 53,79 53,129 0,40 -12,76 -33,106 -20,28 -49,51 -82,64l0 129 -1 0c-2,15 -9,28 -19,38 -12,12 -29,20 -47,20 -18,0 -35,-8 -47,-20 -10,-10 -17,-24 -19,-38l-1 0 0 -129c-33,-13 -62,-36 -82,-64 -21,-30 -33,-66 -33,-106 0,-50 20,-96 53,-129 33,-33 79,-53 129,-53zm-168 883c-3,4 -8,4 -12,0 -3,-3 -3,-8 0,-12l168 -167 -168 -168c-3,-3 -3,-9 0,-12 4,-4 9,-4 12,0l168 167 168 -167c3,-4 8,-4 12,0 3,3 3,9 0,12l-168 168 168 167c3,4 3,9 0,12 -4,4 -9,4 -12,0l-168 -167 -168 167z"></path>
 </g>
<style>.SmzkYwkS_0{stroke-dasharray:14707 14709;stroke-dashoffset:14708;animation:SmzkYwkS_draw_0 7400ms linear 0ms infinite,SmzkYwkS_fade 7400ms linear 0ms infinite;}@keyframes SmzkYwkS_draw{100%{stroke-dashoffset:0;}}@keyframes SmzkYwkS_fade{0%{stroke-opacity:1;}94.5945945945946%{stroke-opacity:1;}100%{stroke-opacity:0;}}@keyframes SmzkYwkS_draw_0{13.513513513513514%{stroke-dashoffset: 14708}54.054054054054056%{ stroke-dashoffset: 0;}100%{ stroke-dashoffset: 0;}}</style></svg>
